<mxfile host="app.diagrams.net" modified="2023-05-27T14:52:51.617Z" agent="Mozilla/5.0 (Windows NT 10.0; Win64; x64) AppleWebKit/537.36 (KHTML, like Gecko) Chrome/113.0.0.0 Safari/537.36" etag="WGj9PaNC-C2Sc7BUJXQT" version="21.3.4" type="device">
  <diagram id="C5RBs43oDa-KdzZeNtuy" name="Page-1">
    <mxGraphModel dx="1687" dy="876" grid="1" gridSize="10" guides="1" tooltips="1" connect="1" arrows="1" fold="1" page="1" pageScale="1" pageWidth="827" pageHeight="1169" math="0" shadow="0">
      <root>
        <mxCell id="WIyWlLk6GJQsqaUBKTNV-0" />
        <mxCell id="WIyWlLk6GJQsqaUBKTNV-1" parent="WIyWlLk6GJQsqaUBKTNV-0" />
        <mxCell id="J72FVbuW-tCd0rZO3Z4A-33" value="" style="edgeStyle=orthogonalEdgeStyle;rounded=0;orthogonalLoop=1;jettySize=auto;html=1;" edge="1" parent="WIyWlLk6GJQsqaUBKTNV-1" source="J72FVbuW-tCd0rZO3Z4A-65" target="J72FVbuW-tCd0rZO3Z4A-36">
          <mxGeometry relative="1" as="geometry">
            <Array as="points">
              <mxPoint x="264" y="190" />
              <mxPoint x="264" y="190" />
            </Array>
          </mxGeometry>
        </mxCell>
        <mxCell id="J72FVbuW-tCd0rZO3Z4A-34" value="Start&lt;br&gt;" style="ellipse;whiteSpace=wrap;html=1;" vertex="1" parent="WIyWlLk6GJQsqaUBKTNV-1">
          <mxGeometry x="201" y="70" width="120" height="80" as="geometry" />
        </mxCell>
        <mxCell id="J72FVbuW-tCd0rZO3Z4A-35" value="" style="edgeStyle=orthogonalEdgeStyle;rounded=0;orthogonalLoop=1;jettySize=auto;html=1;" edge="1" parent="WIyWlLk6GJQsqaUBKTNV-1" source="J72FVbuW-tCd0rZO3Z4A-36" target="J72FVbuW-tCd0rZO3Z4A-38">
          <mxGeometry relative="1" as="geometry" />
        </mxCell>
        <mxCell id="J72FVbuW-tCd0rZO3Z4A-36" value="i=0" style="whiteSpace=wrap;html=1;" vertex="1" parent="WIyWlLk6GJQsqaUBKTNV-1">
          <mxGeometry x="204" y="250" width="120" height="60" as="geometry" />
        </mxCell>
        <mxCell id="J72FVbuW-tCd0rZO3Z4A-37" value="" style="edgeStyle=orthogonalEdgeStyle;rounded=0;orthogonalLoop=1;jettySize=auto;html=1;" edge="1" parent="WIyWlLk6GJQsqaUBKTNV-1" source="J72FVbuW-tCd0rZO3Z4A-38" target="J72FVbuW-tCd0rZO3Z4A-41">
          <mxGeometry relative="1" as="geometry" />
        </mxCell>
        <mxCell id="J72FVbuW-tCd0rZO3Z4A-38" value="j=i+1" style="whiteSpace=wrap;html=1;" vertex="1" parent="WIyWlLk6GJQsqaUBKTNV-1">
          <mxGeometry x="204" y="340" width="120" height="60" as="geometry" />
        </mxCell>
        <mxCell id="J72FVbuW-tCd0rZO3Z4A-39" value="" style="edgeStyle=orthogonalEdgeStyle;rounded=0;orthogonalLoop=1;jettySize=auto;html=1;" edge="1" parent="WIyWlLk6GJQsqaUBKTNV-1" source="J72FVbuW-tCd0rZO3Z4A-41" target="J72FVbuW-tCd0rZO3Z4A-42">
          <mxGeometry relative="1" as="geometry" />
        </mxCell>
        <mxCell id="J72FVbuW-tCd0rZO3Z4A-40" value="" style="edgeStyle=orthogonalEdgeStyle;rounded=0;orthogonalLoop=1;jettySize=auto;html=1;" edge="1" parent="WIyWlLk6GJQsqaUBKTNV-1" source="J72FVbuW-tCd0rZO3Z4A-41" target="J72FVbuW-tCd0rZO3Z4A-45">
          <mxGeometry relative="1" as="geometry" />
        </mxCell>
        <mxCell id="J72FVbuW-tCd0rZO3Z4A-41" value="i&amp;lt;n-1" style="rhombus;whiteSpace=wrap;html=1;" vertex="1" parent="WIyWlLk6GJQsqaUBKTNV-1">
          <mxGeometry x="224" y="430" width="80" height="80" as="geometry" />
        </mxCell>
        <mxCell id="J72FVbuW-tCd0rZO3Z4A-42" value="End&lt;br&gt;" style="ellipse;whiteSpace=wrap;html=1;" vertex="1" parent="WIyWlLk6GJQsqaUBKTNV-1">
          <mxGeometry x="384" y="430" width="80" height="80" as="geometry" />
        </mxCell>
        <mxCell id="J72FVbuW-tCd0rZO3Z4A-43" value="H&lt;br&gt;" style="text;html=1;strokeColor=none;fillColor=none;align=center;verticalAlign=middle;whiteSpace=wrap;rounded=0;" vertex="1" parent="WIyWlLk6GJQsqaUBKTNV-1">
          <mxGeometry x="304" y="430" width="60" height="30" as="geometry" />
        </mxCell>
        <mxCell id="J72FVbuW-tCd0rZO3Z4A-44" value="" style="edgeStyle=orthogonalEdgeStyle;rounded=0;orthogonalLoop=1;jettySize=auto;html=1;" edge="1" parent="WIyWlLk6GJQsqaUBKTNV-1" source="J72FVbuW-tCd0rZO3Z4A-45" target="J72FVbuW-tCd0rZO3Z4A-49">
          <mxGeometry relative="1" as="geometry" />
        </mxCell>
        <mxCell id="J72FVbuW-tCd0rZO3Z4A-45" value="i++&lt;br&gt;" style="whiteSpace=wrap;html=1;" vertex="1" parent="WIyWlLk6GJQsqaUBKTNV-1">
          <mxGeometry x="204" y="540" width="120" height="60" as="geometry" />
        </mxCell>
        <mxCell id="J72FVbuW-tCd0rZO3Z4A-46" value="I&lt;br&gt;" style="text;html=1;strokeColor=none;fillColor=none;align=center;verticalAlign=middle;whiteSpace=wrap;rounded=0;" vertex="1" parent="WIyWlLk6GJQsqaUBKTNV-1">
          <mxGeometry x="204" y="510" width="60" height="30" as="geometry" />
        </mxCell>
        <mxCell id="J72FVbuW-tCd0rZO3Z4A-47" style="edgeStyle=orthogonalEdgeStyle;rounded=0;orthogonalLoop=1;jettySize=auto;html=1;entryX=1;entryY=0.5;entryDx=0;entryDy=0;" edge="1" parent="WIyWlLk6GJQsqaUBKTNV-1" source="J72FVbuW-tCd0rZO3Z4A-49" target="J72FVbuW-tCd0rZO3Z4A-45">
          <mxGeometry relative="1" as="geometry">
            <Array as="points">
              <mxPoint x="424" y="710" />
              <mxPoint x="424" y="570" />
            </Array>
          </mxGeometry>
        </mxCell>
        <mxCell id="J72FVbuW-tCd0rZO3Z4A-48" value="" style="edgeStyle=orthogonalEdgeStyle;rounded=0;orthogonalLoop=1;jettySize=auto;html=1;" edge="1" parent="WIyWlLk6GJQsqaUBKTNV-1" source="J72FVbuW-tCd0rZO3Z4A-49" target="J72FVbuW-tCd0rZO3Z4A-52">
          <mxGeometry relative="1" as="geometry" />
        </mxCell>
        <mxCell id="J72FVbuW-tCd0rZO3Z4A-49" value="j&amp;gt;0" style="rhombus;whiteSpace=wrap;html=1;" vertex="1" parent="WIyWlLk6GJQsqaUBKTNV-1">
          <mxGeometry x="224" y="670" width="80" height="80" as="geometry" />
        </mxCell>
        <mxCell id="J72FVbuW-tCd0rZO3Z4A-50" value="H" style="text;html=1;strokeColor=none;fillColor=none;align=center;verticalAlign=middle;whiteSpace=wrap;rounded=0;" vertex="1" parent="WIyWlLk6GJQsqaUBKTNV-1">
          <mxGeometry x="324" y="680" width="60" height="30" as="geometry" />
        </mxCell>
        <mxCell id="J72FVbuW-tCd0rZO3Z4A-51" value="" style="edgeStyle=orthogonalEdgeStyle;rounded=0;orthogonalLoop=1;jettySize=auto;html=1;" edge="1" parent="WIyWlLk6GJQsqaUBKTNV-1" source="J72FVbuW-tCd0rZO3Z4A-52" target="J72FVbuW-tCd0rZO3Z4A-55">
          <mxGeometry relative="1" as="geometry" />
        </mxCell>
        <mxCell id="J72FVbuW-tCd0rZO3Z4A-52" value="j--" style="whiteSpace=wrap;html=1;" vertex="1" parent="WIyWlLk6GJQsqaUBKTNV-1">
          <mxGeometry x="204" y="770" width="120" height="60" as="geometry" />
        </mxCell>
        <mxCell id="J72FVbuW-tCd0rZO3Z4A-53" value="" style="edgeStyle=orthogonalEdgeStyle;rounded=0;orthogonalLoop=1;jettySize=auto;html=1;" edge="1" parent="WIyWlLk6GJQsqaUBKTNV-1" source="J72FVbuW-tCd0rZO3Z4A-55" target="J72FVbuW-tCd0rZO3Z4A-57">
          <mxGeometry relative="1" as="geometry" />
        </mxCell>
        <mxCell id="J72FVbuW-tCd0rZO3Z4A-54" style="edgeStyle=orthogonalEdgeStyle;rounded=0;orthogonalLoop=1;jettySize=auto;html=1;entryX=0;entryY=0.5;entryDx=0;entryDy=0;" edge="1" parent="WIyWlLk6GJQsqaUBKTNV-1" source="J72FVbuW-tCd0rZO3Z4A-55" target="J72FVbuW-tCd0rZO3Z4A-52">
          <mxGeometry relative="1" as="geometry">
            <mxPoint x="140" y="700" as="targetPoint" />
            <Array as="points">
              <mxPoint x="141" y="935" />
              <mxPoint x="141" y="800" />
            </Array>
          </mxGeometry>
        </mxCell>
        <mxCell id="J72FVbuW-tCd0rZO3Z4A-55" value="t[j - 1] &amp;gt; t[j]" style="rhombus;whiteSpace=wrap;html=1;" vertex="1" parent="WIyWlLk6GJQsqaUBKTNV-1">
          <mxGeometry x="197.5" y="850" width="133" height="130" as="geometry" />
        </mxCell>
        <mxCell id="J72FVbuW-tCd0rZO3Z4A-56" value="" style="edgeStyle=orthogonalEdgeStyle;rounded=0;orthogonalLoop=1;jettySize=auto;html=1;" edge="1" parent="WIyWlLk6GJQsqaUBKTNV-1" source="J72FVbuW-tCd0rZO3Z4A-57" target="J72FVbuW-tCd0rZO3Z4A-59">
          <mxGeometry relative="1" as="geometry" />
        </mxCell>
        <mxCell id="J72FVbuW-tCd0rZO3Z4A-57" value="temp = t[j - 1]" style="whiteSpace=wrap;html=1;" vertex="1" parent="WIyWlLk6GJQsqaUBKTNV-1">
          <mxGeometry x="204" y="1000" width="120" height="60" as="geometry" />
        </mxCell>
        <mxCell id="J72FVbuW-tCd0rZO3Z4A-58" value="" style="edgeStyle=orthogonalEdgeStyle;rounded=0;orthogonalLoop=1;jettySize=auto;html=1;" edge="1" parent="WIyWlLk6GJQsqaUBKTNV-1" source="J72FVbuW-tCd0rZO3Z4A-59" target="J72FVbuW-tCd0rZO3Z4A-61">
          <mxGeometry relative="1" as="geometry" />
        </mxCell>
        <mxCell id="J72FVbuW-tCd0rZO3Z4A-59" value="t[j - 1] = t[j]" style="whiteSpace=wrap;html=1;" vertex="1" parent="WIyWlLk6GJQsqaUBKTNV-1">
          <mxGeometry x="207" y="1070" width="120" height="60" as="geometry" />
        </mxCell>
        <mxCell id="J72FVbuW-tCd0rZO3Z4A-60" style="edgeStyle=orthogonalEdgeStyle;rounded=0;orthogonalLoop=1;jettySize=auto;html=1;" edge="1" parent="WIyWlLk6GJQsqaUBKTNV-1" source="J72FVbuW-tCd0rZO3Z4A-61">
          <mxGeometry relative="1" as="geometry">
            <mxPoint x="140" y="800" as="targetPoint" />
            <Array as="points">
              <mxPoint x="111" y="1170" />
            </Array>
          </mxGeometry>
        </mxCell>
        <mxCell id="J72FVbuW-tCd0rZO3Z4A-61" value="t[j] = temp" style="whiteSpace=wrap;html=1;" vertex="1" parent="WIyWlLk6GJQsqaUBKTNV-1">
          <mxGeometry x="207" y="1140" width="120" height="60" as="geometry" />
        </mxCell>
        <mxCell id="J72FVbuW-tCd0rZO3Z4A-62" value="I&lt;br&gt;" style="text;html=1;strokeColor=none;fillColor=none;align=center;verticalAlign=middle;whiteSpace=wrap;rounded=0;" vertex="1" parent="WIyWlLk6GJQsqaUBKTNV-1">
          <mxGeometry x="261" y="970" width="60" height="30" as="geometry" />
        </mxCell>
        <mxCell id="J72FVbuW-tCd0rZO3Z4A-63" value="H&lt;br&gt;" style="text;html=1;strokeColor=none;fillColor=none;align=center;verticalAlign=middle;whiteSpace=wrap;rounded=0;" vertex="1" parent="WIyWlLk6GJQsqaUBKTNV-1">
          <mxGeometry x="147" y="900" width="60" height="30" as="geometry" />
        </mxCell>
        <mxCell id="J72FVbuW-tCd0rZO3Z4A-64" value="" style="edgeStyle=orthogonalEdgeStyle;rounded=0;orthogonalLoop=1;jettySize=auto;html=1;" edge="1" parent="WIyWlLk6GJQsqaUBKTNV-1" source="J72FVbuW-tCd0rZO3Z4A-34" target="J72FVbuW-tCd0rZO3Z4A-65">
          <mxGeometry relative="1" as="geometry">
            <mxPoint x="264" y="160" as="sourcePoint" />
            <mxPoint x="264" y="250" as="targetPoint" />
            <Array as="points">
              <mxPoint x="264" y="160" />
              <mxPoint x="264" y="160" />
            </Array>
          </mxGeometry>
        </mxCell>
        <mxCell id="J72FVbuW-tCd0rZO3Z4A-65" value="n = tomb hossz" style="rounded=0;whiteSpace=wrap;html=1;" vertex="1" parent="WIyWlLk6GJQsqaUBKTNV-1">
          <mxGeometry x="204" y="170" width="120" height="60" as="geometry" />
        </mxCell>
      </root>
    </mxGraphModel>
  </diagram>
</mxfile>
